<?xml version="1.0" encoding="UTF-8"?>
<!DOCTYPE svg PUBLIC "-//W3C//DTD SVG 1.1//EN" "http://www.w3.org/Graphics/SVG/1.1/DTD/svg11.dtd">
<!-- Creator: CorelDRAW 2019 (64-Bit) -->
<svg xmlns="http://www.w3.org/2000/svg" xml:space="preserve" width="8.26772in" height="11.6929in" version="1.1" style="shape-rendering:geometricPrecision; text-rendering:geometricPrecision; image-rendering:optimizeQuality; fill-rule:evenodd; clip-rule:evenodd"
viewBox="0 0 8267.72 11692.91"
 xmlns:xlink="http://www.w3.org/1999/xlink"
 xmlns:xodm="http://www.corel.com/coreldraw/odm/2003">
 <defs>
  <style type="text/css">
   <![CDATA[
    .fil0 {fill:#373435}
   ]]>
  </style>
 </defs>
 <g id="Layer_x0020_1">
  <metadata id="CorelCorpID_0Corel-Layer"/>
  <g>
   <path class="fil0" d="M2415.51 6999.91c323.68,-344.81 1007.32,-597.16 1935.51,-315.27l-407.3 -1748.68c-662.21,235.78 -1362.24,1385.23 -1528.21,2063.95zm2489.6 1780l2586.35 -4530.71c-1561.44,-3211.61 -4925.97,-3035.6 -6873.9,93.49 2271.2,-2613.92 4898.7,-2837.85 6373.8,-0.92l-1963.87 3572.99 -886.44 -3568c-1928.07,661.11 -2692.04,3861.75 -2704.5,5692.05 221.81,-819.21 469.42,-2169.52 1173.14,-2761.3 460.37,-387.14 1080.49,-476.17 1804.5,-180.65l490.93 1683.05zm-934.37 -3850.25l407.3 1748.68 10.88 46.72 -45.93 -13.95c-415.74,-126.26 -781.57,-144.25 -1087.03,-94.5 -367.32,59.83 -646.85,217.55 -820.26,402.28l-72.12 76.83 25.02 -102.33c91.19,-372.94 341.86,-886.26 658.85,-1314.39 266.15,-359.44 579.87,-659.84 887.04,-769.2l29.2 -10.39 7.04 30.25zm942.67 3779.84l2546.71 -4461.27c-414.68,-847.8 -955.74,-1456.62 -1562.87,-1834.57 -474.95,-295.67 -990.39,-450.12 -1517.33,-467.26 -527.33,-17.15 -1066.53,103.14 -1588.59,356.95 -705.57,343.04 -1379.69,930.02 -1950.97,1751.26 563.2,-599.77 1144.78,-1054.8 1722.54,-1355.22 614.7,-319.62 1225.41,-464.51 1805.55,-422.86 580.91,41.7 1130.57,270.31 1622.35,697.61 380.76,330.84 726.64,780.63 1025.19,1354.82l6.83 13.13 -7.15 13.02 -1963.87 3572.99 -34.13 62.08 -17.09 -68.81 -879.06 -3538.28c-803.13,287.69 -1401.06,1023.99 -1824.19,1914.54 -531.67,1118.98 -787.1,2479.96 -827.49,3503.74 12.39,-48.72 24.97,-98.65 37.8,-149.59 204.89,-813.33 474.22,-1882.45 1084.25,-2395.45 238.86,-200.87 519.97,-322.94 835.76,-354.55 303.02,-30.33 637.59,22.67 996.94,169.35l12.39 5.06 3.78 12.96 472.63 1620.34z"/>
  </g>
 </g>
</svg>
